<?xml version="1.0" encoding="utf-8"?>
<!-- Generator: Adobe Illustrator 25.4.1, SVG Export Plug-In . SVG Version: 6.00 Build 0)  -->
<svg version="1.1" id="Layer_1" xmlns="http://www.w3.org/2000/svg" xmlns:xlink="http://www.w3.org/1999/xlink" x="0px" y="0px"
	 viewBox="0 0 203 42" style="enable-background:new 0 0 203 42;" xml:space="preserve">
<g>
	<g>
		<path d="M15.6,0.1c0.4,0,0.8,0,1.2,0c0.1,0,0.2,0.1,0.4,0.1c1.6,0.3,3,1,4.2,2c1.6,1.3,2.9,2.9,4,4.6c0.8,1.2,1.5,2.5,2.1,3.9
			c0.5,1.1,0.9,2.1,1.3,3.2c0.5,1.4,0.9,2.9,1.3,4.4c0.5,2,0.8,4.1,0.9,6.1c0.1,2,0,4-0.4,6c-0.4,1.9-1.1,3.8-2.2,5.4
			c-1.2,1.7-2.7,3.1-4.5,4.1c-1.5,0.8-3.1,1.3-4.9,1.6c-2.3,0.4-4.7,0.3-7-0.2c-2-0.4-3.8-1.2-5.4-2.4c-1.6-1.1-2.9-2.6-3.9-4.3
			c-1-1.7-1.6-3.6-1.8-5.6c-0.2-1.6-0.3-3.1-0.2-4.7c0.2-2.7,0.7-5.3,1.4-7.8C3,14,4,11.5,5.3,9.2c0.9-1.7,2-3.3,3.3-4.7
			c0.9-1.1,2-2,3.2-2.8c0.8-0.6,1.7-1,2.7-1.3C14.8,0.2,15.2,0.2,15.6,0.1z M22.9,7.8c0-0.1-0.1-0.1-0.1-0.2
			c-0.6-0.7-1.1-1.4-1.7-2.1c-0.9-1-1.9-1.8-3.1-2.3c-1.2-0.6-2.5-0.6-3.7,0c-1,0.5-1.9,1.1-2.7,1.9c-1.2,1.1-2.2,2.4-3,3.8
			c-1.2,1.9-2.2,3.9-3,6c-1,2.6-1.7,5.3-2,8c-0.3,2.4-0.3,4.7,0.2,7c0.3,1.3,0.7,2.5,1.4,3.6c0.7,1.1,1.5,2.1,2.5,2.9
			c1.1,0.9,2.4,1.5,3.7,2c0.1,0,0.2,0,0.2,0c0.2,0,0.4-0.1,0.5-0.2c1.4-0.4,2.7-0.9,4-1.6c1-0.5,1.8-1.1,2.6-1.8
			c0.7-0.7,1.3-1.5,1.6-2.5c0.3-1.2,0.3-2.3,0-3.5c-0.3-1.5-0.9-3-1.5-4.4c-0.7-1.6-1.4-3.2-2-4.9c-0.5-1.4-0.8-2.8-0.8-4.3
			c0-1.8,0.7-3.3,1.9-4.5c0.9-1,2.1-1.6,3.3-2.2C21.7,8.2,22.3,8,22.9,7.8z M17,39c1.9-0.1,3.6-0.4,5.3-1.3c2.2-1.1,3.7-2.8,4.7-5
			c0.9-2,1.3-4.1,1.3-6.2c0-1.6-0.1-3.2-0.3-4.8c-0.3-1.9-0.7-3.8-1.3-5.7c-0.4-1.3-0.9-2.5-1.4-3.7c-0.3-0.8-0.7-1.5-1.1-2.3
			c-0.1,0-0.1,0-0.1,0c0,0-0.1,0-0.1,0c-1.3,0.4-2.7,0.9-3.8,1.8c-0.8,0.6-1.5,1.4-1.7,2.4c-0.2,0.9-0.1,1.8,0.1,2.7
			c0.4,1.6,1,3.1,1.7,4.5c0.8,1.7,1.5,3.4,2.1,5.2c0.4,1.4,0.7,2.9,0.6,4.3c-0.1,2.1-1,3.9-2.5,5.4c-0.8,0.8-1.8,1.5-2.8,2.1
			C17.5,38.8,17.3,38.9,17,39z"/>
	</g>
	<g>
		<path d="M42.3,28.9l1.5-3.4c1.6,1.2,4.1,2,6.4,2c2.6,0,3.7-0.9,3.7-2.1c0-3.6-11.2-1.1-11.2-8.3c0-3.3,2.6-6,8.1-6
			c2.4,0,4.9,0.6,6.7,1.7l-1.4,3.4c-1.8-1-3.6-1.5-5.4-1.5c-2.6,0-3.7,1-3.7,2.2c0,3.6,11.2,1.1,11.2,8.2c0,3.2-2.7,6-8.2,6
			C47.1,31.1,44,30.2,42.3,28.9z"/>
		<path d="M60.2,21.1c0-5.8,4.5-10,10.5-10c3.3,0,6.1,1.2,7.9,3.4l-2.9,2.6c-1.3-1.5-2.9-2.3-4.9-2.3c-3.6,0-6.2,2.5-6.2,6.2
			s2.6,6.2,6.2,6.2c1.9,0,3.6-0.8,4.9-2.3l2.9,2.6c-1.8,2.2-4.6,3.4-8,3.4C64.7,31.1,60.2,26.9,60.2,21.1z"/>
		<path d="M93.9,30.8l-3.7-5.4H90h-3.9v5.4h-4.5V11.5H90c5.2,0,8.4,2.7,8.4,7c0,2.9-1.5,5-4,6.1l4.3,6.2H93.9z M89.7,15.1h-3.6v6.7
			h3.6c2.7,0,4.1-1.3,4.1-3.4C93.9,16.3,92.5,15.1,89.7,15.1z"/>
		<path d="M114.6,26.6h-9l-1.7,4.1h-4.6l8.6-19.3h4.4l8.6,19.3h-4.7L114.6,26.6z M113.2,23.2l-3.1-7.4l-3.1,7.4H113.2z"/>
		<path d="M140.6,30.8l0-11.6l-5.7,9.5h-2l-5.7-9.3v11.3H123V11.5h3.7l7.2,12l7.1-12h3.7l0.1,19.3H140.6z"/>
		<path d="M167.1,25.5c0,3.3-2.6,5.3-7.7,5.3h-10V11.5h9.4c4.8,0,7.3,2,7.3,5c0,1.9-1,3.4-2.6,4.2C165.7,21.4,167.1,23.1,167.1,25.5
			z M153.8,14.8v4.6h4.4c2.2,0,3.4-0.8,3.4-2.3s-1.2-2.3-3.4-2.3H153.8z M162.6,25c0-1.6-1.2-2.4-3.6-2.4h-5.2v4.8h5.2
			C161.4,27.4,162.6,26.7,162.6,25z"/>
		<path d="M170.5,11.5h4.5v15.7h9.7v3.6h-14.2V11.5z"/>
		<path d="M194.4,23.9v6.8H190v-6.9l-7.5-12.4h4.7l5.2,8.6l5.2-8.6h4.4L194.4,23.9z"/>
	</g>
</g>
</svg>
