<?xml version="1.0" encoding="utf-8"?>
<!-- Generator: Adobe Illustrator 25.4.1, SVG Export Plug-In . SVG Version: 6.00 Build 0)  -->
<svg version="1.1" id="Layer_1" xmlns="http://www.w3.org/2000/svg" xmlns:xlink="http://www.w3.org/1999/xlink" x="0px" y="0px"
	 viewBox="0 0 178 46" style="enable-background:new 0 0 178 46;" xml:space="preserve">
<style type="text/css">
	.st0{fill:#00B875;}
	.st1{fill:#F5EFEA;}
	.st2{fill:#005423;}
</style>
<g>
	<path class="st0" d="M33.9,40.5c-2.2-1.6-4.2-3-6.2-4.5c-1.9-1.4-3.8-2.7-5.6-4.1c-0.6-0.5-1.1-0.5-1.8,0
		c-3.9,2.9-7.8,5.7-11.8,8.6c0.1-0.4,0.1-0.6,0.2-0.9c1.4-4.3,2.8-8.6,4.2-13c0.3-0.9,0.2-1.4-0.6-2C8.4,22,4.7,19.2,0.9,16.5
		c-0.1-0.1-0.2-0.2-0.5-0.4c0.5,0,0.8,0,1.2,0c4.5,0,9,0,13.5,0c0.9,0,1.3-0.3,1.6-1.2c1.4-4.3,2.8-8.6,4.2-13
		c0.1-0.2,0.2-0.4,0.3-0.8c1,3.1,2,6.1,2.9,9c0.5,1.6,1.1,3.2,1.6,4.9c0.2,0.8,0.6,1.1,1.4,1.1c4.9,0,9.8,0,14.9,0
		c-1.8,1.3-3.5,2.5-5.2,3.7c-2.3,1.6-4.5,3.3-6.8,4.9c-0.6,0.4-0.8,0.9-0.5,1.6c1.4,4.5,2.8,9,4.2,13.5C33.8,40,33.9,40.1,33.9,40.5
		z"/>
	<path class="st1" d="M119.6,22.1c1.1,0,2.1,0,3.2,0c0,0.6,0,1.2,0,2.1c1.4-2,3.1-2.6,5.2-2.6c3.5,0,6,1.8,7,5.2
		c0.8,2.7,0.7,5.4-0.5,7.9c-1.9,4.2-7.7,5.2-10.9,1.9c-0.1-0.1-0.1-0.2-0.4-0.3c0,2.5,0,5.1,0,7.7c-1.2,0-2.4,0-3.6,0
		C119.6,36.8,119.6,29.5,119.6,22.1z M132.2,30.2c-0.5-1.3-0.7-2.7-1.4-3.8c-1.7-2.7-5.7-2.5-7.1,0.3c-1.1,2.2-1.1,4.5-0.1,6.7
		c1.5,3.1,5.6,3.4,7.3,0.6C131.6,32.9,131.8,31.5,132.2,30.2z"/>
	<path class="st1" d="M159.3,38.6c-4.9-0.1-8.1-3.5-8-8.6c0.1-5,3.4-8.5,8-8.4c5.2,0.1,8.4,3.4,8.3,8.6
		C167.5,35.3,164.2,38.7,159.3,38.6z M154.7,29.8c0.2,1.2,0.3,2.1,0.6,3c0.6,1.9,2.2,3,4.1,3.1c1.8,0,3.4-1.1,4.1-2.9
		c0.7-1.9,0.7-3.8,0-5.6c-0.6-1.6-1.8-2.6-3.6-2.8c-1.7-0.2-3.2,0.4-4,1.9C155.3,27.5,155,28.8,154.7,29.8z"/>
	<path class="st1" d="M106,26.6c-1.3,0-2.5,0-3.6,0c-1-2.1-3.5-2.9-5.5-1.7c-1,0.6-1.1,1.9,0,2.5c0.9,0.4,1.8,0.7,2.8,1
		c1.5,0.5,3.1,0.8,4.6,1.4c3.1,1.3,3,5.8,0.3,7.4c-3.2,2-6.7,2.1-10,0.3c-1.5-0.8-2.3-2.5-2.3-4.4c1,0,2,0,3,0
		c0.2,0,0.5,0.3,0.6,0.5c0.3,1.4,1.2,2.1,2.5,2.2c1.1,0.1,2.3,0,3.4-0.3c1.5-0.5,1.7-2.2,0.3-3c-0.9-0.5-1.9-0.7-2.9-1
		c-1.2-0.3-2.4-0.6-3.6-0.9c-2-0.7-3.1-2.2-3.2-4.1c0-1.9,1-3.4,3-4.1c2.4-0.9,4.9-1,7.3,0C104.7,23,105.8,24.5,106,26.6z"/>
	<path class="st1" d="M46.7,19.3c0-1.2,0-2.2,0-3.3c6,0,11.9,0,17.9,0c0,1,0,2.1,0,3.2c-2.3,0-4.6,0-7,0c0,6.4,0,12.6,0,18.9
		c-1.3,0-2.5,0-3.9,0c0-6.3,0-12.5,0-18.9C51.3,19.3,49.1,19.3,46.7,19.3z"/>
	<path class="st1" d="M89.7,38.2c-1.1,0-2.2,0-3.4,0c0-0.7,0-1.3,0-2c-0.2,0.1-0.3,0.2-0.4,0.3c-2,2.7-5.4,2.7-7.9,1.4
		c-1.6-0.8-2.3-2.3-2.3-3.9c-0.1-3.9,0-7.9,0-11.8c1.1,0,2.2,0,3.5,0c0,1,0,2,0,3.1c0,2.3,0,4.6,0,6.9c0,2.5,1,3.7,3.2,3.8
		c2.1,0.1,3.7-1.3,3.8-3.5c0.2-2.9,0.1-5.8,0.1-8.7c0-0.5,0-0.9,0-1.5c1.2,0,2.3,0,3.5,0C89.7,27.5,89.7,32.8,89.7,38.2z"/>
	<path class="st1" d="M110.2,22.1c0-1.7,0-3.2,0-4.8c1.2,0,2.3,0,3.5,0c0,1.5,0,3.1,0,4.8c1.1,0,2.1,0,3.2,0c0,0.9,0,1.7,0,2.6
		c-1,0-2,0-3.2,0c0,1.8,0,3.4,0,5c0,1.3,0,2.6,0,3.9c0,1.6,0.4,2,2,1.9c0.3,0,0.7,0,1.1,0c0,0.9,0,1.7,0,2.7c-1.3,0-2.5,0.1-3.8,0
		c-2.1-0.3-2.8-1.1-2.9-3.2c-0.1-3-0.1-6-0.1-8.9c0-0.4,0-0.8,0-1.3c-0.9,0-1.7,0-2.6,0c0-0.9,0-1.7,0-2.7
		C108.4,22.1,109.3,22.1,110.2,22.1z"/>
	<path class="st1" d="M178.1,35.5c0,0.9,0,1.7,0,2.6c-1.5,0.4-3,0.4-4.4,0c-1.2-0.3-1.9-1-2.1-2.2c-0.1-0.9-0.2-1.9-0.2-2.9
		c0-2.7,0-5.4,0-8.2c-0.9,0-1.7,0-2.6,0c0-1,0-1.8,0-2.7c0.8,0,1.6,0,2.6,0c0-1.6,0-3.2,0-4.8c1.2,0,2.3,0,3.6,0c0,1.6,0,3.1,0,4.8
		c1.1,0,2.1,0,3.2,0c0,0.9,0,1.7,0,2.6c-0.8,0-1.5,0-2.3,0c-0.8-0.1-0.9,0.3-0.9,1c0,2.5,0,5,0,7.5c0,2.1,0.3,2.4,2.5,2.4
		C177.5,35.5,177.7,35.5,178.1,35.5z"/>
	<path class="st1" d="M145,16c1.2,0,2.3,0,3.4,0c0,7.4,0,14.8,0,22.2c-1.2,0-2.3,0-3.4,0C145,30.8,145,23.4,145,16z"/>
	<path class="st1" d="M64,22.1c1.1,0,2.1,0,3.3,0c0,0.9,0,1.7,0,2.5c1.5-2.1,3.4-3.4,6.1-2.9c0,1.1,0,2.2,0,3.2
		c-0.1,0-0.2,0.1-0.2,0.1c-3.3-0.4-5.3,1.1-5.6,4.4c-0.2,2.2-0.1,4.4-0.1,6.6c0,0.6,0,1.3,0,2c-1.2,0-2.3,0-3.5,0
		C64,32.8,64,27.5,64,22.1z"/>
	<path class="st1" d="M138.3,22.1c1.1,0,2.2,0,3.4,0c0,5.3,0,10.6,0,16c-1.1,0-2.2,0-3.4,0C138.3,32.9,138.3,27.6,138.3,22.1z"/>
	<path class="st1" d="M138.3,19.2c0-1.1,0-2.1,0-3.2c1.1,0,2.2,0,3.4,0c0,1,0,2,0,3.2C140.6,19.2,139.5,19.2,138.3,19.2z"/>
	<polygon class="st2" points="29.6,25.3 21.3,31.3 30.7,28.8 	"/>
</g>
</svg>
