<?xml version="1.0" encoding="utf-8"?>
<!-- Generator: Adobe Illustrator 25.4.1, SVG Export Plug-In . SVG Version: 6.00 Build 0)  -->
<svg version="1.1" id="Layer_1" xmlns="http://www.w3.org/2000/svg" xmlns:xlink="http://www.w3.org/1999/xlink" x="0px" y="0px"
	 viewBox="0 0 30 30" style="enable-background:new 0 0 30 30;" xml:space="preserve">
<style type="text/css">
	.st0{fill:#B3B3B3;}
</style>
<g id="jQVsl8.tif">
	<g>
		<path class="st0" d="M17,30c-0.1,0-0.1,0-0.2,0c0-3.9,0-7.8,0-11.8c1.2,0,2.4,0,3.6,0c0.2-1.4,0.4-2.8,0.5-4.2c-1.4,0-2.8,0-4.2,0
			c0-1,0-2.1,0-3.1c0-0.3,0.1-0.6,0.2-0.8c0.3-0.6,0.8-0.8,1.4-0.8c0.8,0,1.6,0,2.4,0c0.1,0,0.2,0,0.3,0c0-1.2,0-2.4,0-3.6
			c0-0.1-0.1-0.2-0.2-0.2c-1.2-0.1-2.4-0.1-3.6-0.1c-1.1,0-2.2,0.4-3.1,1.2c-1.2,1-1.7,2.3-1.7,3.8c-0.1,1.1,0,2.2,0,3.4
			c0,0.1,0,0.2,0,0.4c-1.2,0-2.4,0-3.6,0c0,1.4,0,2.8,0,4.2c1.2,0,2.4,0,3.6,0c0,3.9,0,7.8,0,11.7c-0.1,0-0.1,0-0.2,0
			c-2.4-0.4-4.6-1.4-6.5-2.9c-2.3-1.8-4-4.1-4.9-6.8C-0.4,16.5-0.4,13,1.1,9.4C3.2,4,8.6,0.2,14.5,0c2.7-0.1,5.3,0.5,7.7,1.8
			c4.2,2.3,6.8,5.9,7.7,10.7c0.1,0.6,0.2,1.1,0.2,1.7c0,0.6,0,1.2,0,1.8c0,0.1,0,0.2-0.1,0.3c-0.1,1.1-0.3,2.2-0.6,3.2
			c-1.8,5.3-5.4,8.8-10.8,10.2C18.1,29.8,17.5,29.9,17,30z"/>
	</g>
</g>
</svg>
