<?xml version="1.0" encoding="utf-8"?>
<!-- Generator: Adobe Illustrator 25.4.1, SVG Export Plug-In . SVG Version: 6.00 Build 0)  -->
<svg version="1.1" id="Layer_1" xmlns="http://www.w3.org/2000/svg" xmlns:xlink="http://www.w3.org/1999/xlink" x="0px" y="0px"
	 viewBox="0 0 30 30" style="enable-background:new 0 0 30 30;" xml:space="preserve">
<style type="text/css">
	.st0{fill:#B3B3B3;}
</style>
<g id="f43Bjb_00000098906398644389714730000014205411203733391757_">
	<g>
		<path class="st0" d="M22.8,30c-5.2,0-10.4,0-15.6,0c0,0-0.1,0-0.1,0c-0.9-0.1-1.7-0.3-2.5-0.7c-2.9-1.5-4.4-3.8-4.5-7
			C0,17.5,0,12.6,0,7.8C0,4.2,2.5,1,6.1,0.2C6.4,0.1,6.8,0.1,7.2,0c5.2,0,10.5,0,15.7,0c0.3,0,0.6,0.1,0.8,0.1
			c3.2,0.6,5.6,3.1,6.2,6.3C30,7.2,30,8.1,30,8.9c0,4.4,0,8.9,0,13.3c0,3.5-2.4,6.6-5.8,7.5C23.7,29.9,23.3,29.9,22.8,30z M15,27.5
			C15,27.5,15,27.5,15,27.5c0.1,0,0.2,0,0.2,0c1.7,0,3.4,0,5.1,0c0.9,0,1.8,0,2.7-0.1c2.4-0.3,4.4-2.6,4.4-5c0-1.2,0-2.4,0-3.5
			c0-3.7,0-7.3,0-11c0-2.9-2.3-5.3-5.2-5.3c-4.1,0-8.2,0-12.3,0c-1,0-1.9,0-2.9,0.1C4.6,2.9,2.6,5.1,2.6,7.6c0,1.7,0,3.5,0,5.2
			c0,3.2,0,6.3,0,9.5c0,2.8,2.2,5,5,5.2c1,0.1,2,0,2.9,0C12,27.5,13.5,27.5,15,27.5z"/>
		<path class="st0" d="M15,22.5c-4.1,0-7.5-3.3-7.5-7.5c0-4.2,3.4-7.4,7.4-7.5c4.2-0.1,7.5,3.3,7.6,7.3C22.5,19.1,19.2,22.4,15,22.5
			z M20.2,15c0-2.9-2.3-5.2-5.2-5.2c-2.9,0-5.2,2.4-5.2,5.3c0,2.7,2.4,5.1,5.1,5.1C17.9,20.2,20.2,17.9,20.2,15z"/>
		<path class="st0" d="M25,6.7c0,1-0.8,1.7-1.8,1.7c-1,0-1.7-0.8-1.7-1.8c0-0.9,0.8-1.7,1.7-1.7C24.3,5,25,5.8,25,6.7z"/>
	</g>
</g>
</svg>
