<?xml version="1.0" encoding="utf-8"?>
<!-- Generator: Adobe Illustrator 25.4.1, SVG Export Plug-In . SVG Version: 6.00 Build 0)  -->
<svg version="1.1" id="Layer_1" xmlns="http://www.w3.org/2000/svg" xmlns:xlink="http://www.w3.org/1999/xlink" x="0px" y="0px"
	 viewBox="0 0 30 30" style="enable-background:new 0 0 30 30;" xml:space="preserve">
<g id="f43Bjb_00000118368690089856450160000009057163948031154861_">
	<g>
		<path d="M22.8,29.9c-5.2,0-10.4,0-15.6,0c0,0-0.1,0-0.1,0c-0.9-0.1-1.7-0.3-2.5-0.7c-2.9-1.4-4.4-3.8-4.5-7c-0.1-4.8,0-9.6,0-14.4
			c0-3.7,2.5-6.8,6-7.6c0.4-0.1,0.7-0.1,1.1-0.2c5.2,0,10.4,0,15.6,0c0.3,0,0.6,0.1,0.8,0.1c3.2,0.6,5.6,3.1,6.1,6.3
			c0.1,0.8,0.1,1.6,0.1,2.5c0,4.4,0,8.9,0,13.3c0,3.5-2.4,6.6-5.8,7.4C23.7,29.8,23.2,29.8,22.8,29.9z M15,27.4
			C15,27.4,15,27.4,15,27.4c0.1,0,0.2,0,0.2,0c1.7,0,3.4,0,5.1,0c0.9,0,1.8,0,2.7-0.1c2.4-0.3,4.3-2.6,4.3-5c0-1.2,0-2.3,0-3.5
			c0-3.6,0-7.3,0-10.9c0-2.9-2.3-5.2-5.2-5.2c-4.1,0-8.2,0-12.2,0c-1,0-1.9,0-2.9,0.1C4.6,3,2.7,5.1,2.7,7.6c0,1.7,0,3.5,0,5.2
			c0,3.1,0,6.3,0,9.4c0,2.8,2.1,5,4.9,5.2c1,0.1,1.9,0,2.9,0C12,27.4,13.5,27.4,15,27.4z"/>
		<path d="M15,22.4c-4.1,0-7.4-3.3-7.5-7.4c0-4.2,3.3-7.4,7.3-7.4c4.2-0.1,7.5,3.3,7.5,7.3C22.5,19.1,19.2,22.4,15,22.4z M20.2,15
			c0-2.9-2.3-5.2-5.2-5.2c-2.9,0-5.2,2.4-5.2,5.3c0,2.7,2.4,5.1,5.1,5.1C17.9,20.2,20.2,17.9,20.2,15z"/>
		<path d="M25,6.8c0,1-0.8,1.7-1.7,1.7c-1,0-1.7-0.8-1.7-1.8c0-0.9,0.8-1.7,1.7-1.7C24.2,5,25,5.8,25,6.8z"/>
	</g>
</g>
</svg>
