<?xml version="1.0" encoding="utf-8"?>
<!-- Generator: Adobe Illustrator 25.4.1, SVG Export Plug-In . SVG Version: 6.00 Build 0)  -->
<svg version="1.1" id="Layer_1" xmlns="http://www.w3.org/2000/svg" xmlns:xlink="http://www.w3.org/1999/xlink" x="0px" y="0px"
	 viewBox="0 0 94 22" style="enable-background:new 0 0 94 22;" xml:space="preserve">
<style type="text/css">
	.st0{fill:#A2A2A2;}
	.st1{clip-path:url(#SVGID_00000008120469094834981430000010943772648547260342_);}
</style>
<g>
	<rect class="st0" width="20.4" height="21.8"/>
	<path d="M84.1,11c-1.5,0-3,0-4.4,0c-0.2,0.9,0.3,1.8,1.2,1.9c0.7,0.1,1.4,0,2.1-0.1c0.2,0,0.4-0.1,0.7-0.2c0.2,1.1,0.1,1.2-0.9,1.4
		c-0.7,0.1-1.4,0.1-2.1,0c-0.8-0.1-1.5-0.5-2-1.3C77.9,11.5,78,9.3,79,8.2c0.8-1,1.9-1.1,3.1-0.9c1.1,0.3,1.7,1,1.9,2.1
		C84.1,9.9,84.1,10.4,84.1,11z M82.7,9.9c0-1.1-0.6-1.7-1.5-1.7c-0.9,0-1.5,0.7-1.4,1.7C80.7,9.9,81.7,9.9,82.7,9.9z"/>
	<path d="M91.3,11c-1.5,0-2.9,0-4.4,0c-0.1,1.2,0.7,2,1.9,2c0.7,0,1.4-0.2,2.1-0.3c0.2,0.9,0.2,1.1-0.8,1.3
		c-0.8,0.1-1.6,0.2-2.3,0.1c-1.2-0.2-2-0.9-2.2-2.1c-0.2-0.7-0.2-1.5-0.1-2.3C85.7,8,87,7.1,88.7,7.2c1.6,0.1,2.5,1.2,2.6,2.9
		C91.3,10.4,91.3,10.6,91.3,11z M89.8,9.9c0.1-1-0.4-1.6-1.3-1.6c-0.9,0-1.5,0.6-1.5,1.6C87.9,9.9,88.8,9.9,89.8,9.9z"/>
	<path d="M71.8,5.2c0,0.4,0,0.7,0,1.2c-1.1,0-2.3,0-3.5,0c0,0.9,0,1.8,0,2.8c0.9,0,1.7,0,2.6,0c0.5,0,0.7,0.1,0.7,0.6
		c0,0.5-0.2,0.7-0.7,0.6c-0.7,0-1.4,0-2.1,0c-0.4,0-0.6,0.1-0.6,0.6c0,1,0,2,0,3c-0.5,0-0.9,0-1.4,0c0-2.9,0-5.8,0-8.7
		C68.5,5.2,70.1,5.2,71.8,5.2z"/>
	<path d="M37.1,14c-0.4,0.2-0.5,0-0.5-0.4c0-1.2,0-2.4,0-3.6c0-0.2,0-0.4,0-0.6C36.4,8.5,36,8,35.2,8c-1-0.1-1.8,0.3-2,1.1
		C33.1,9.5,33,9.9,33,10.4c0,1.1,0,2.2,0,3.2c0,0.4-0.2,0.6-0.6,0.4c0-0.9,0-1.8,0-2.7c0-0.6,0-1.2,0-1.8c0-0.9-0.4-1.4-1.1-1.5
		c-0.9-0.2-1.9,0.2-2.1,0.9c-0.2,0.5-0.2,1.2-0.3,1.7c0,1.1,0,2.2,0,3.3c-0.5,0.2-0.6-0.1-0.6-0.5c0-1.8,0-3.6,0-5.5
		c0-0.2,0.2-0.4,0.2-0.5c0.1,0.2,0.2,0.3,0.3,0.5c0,0.1,0,0.2,0.1,0.3c0.6-0.6,1.2-1,2-0.9c0.8,0,1.4,0.3,1.9,1.1
		c0.6-0.8,1.4-1.2,2.4-1.1c1.1,0.1,1.7,0.7,1.8,1.7C37.1,10.8,37.1,12.4,37.1,14z"/>
	<path d="M53.1,8.4c0.7-0.8,1.5-1,2.4-1C56.6,7.5,57.3,8,57.6,9c0.4,1.2,0.4,2.3,0,3.5c-0.7,2-3.4,2.2-4.7,0.7c0,1,0,1.8,0,2.7
		c0,0.3,0,0.5,0,0.8c0,0.1-0.2,0.3-0.3,0.4c-0.1-0.1-0.3-0.2-0.3-0.4c0-0.3,0-0.7,0-1c0-2.5,0-5,0-7.4c0-0.2,0.2-0.5,0.2-0.7
		C52.8,7.8,52.9,8,53,8.2C53,8.2,53,8.3,53.1,8.4z M57.4,10.7c-0.1-0.4-0.1-1-0.3-1.6c-0.3-0.9-1-1.3-2.1-1.2
		c-1,0.1-1.6,0.5-1.8,1.4c-0.1,0.8-0.2,1.7-0.1,2.5c0.1,1.3,0.8,1.8,2,1.8c1.1,0,1.8-0.6,2.1-1.7C57.3,11.6,57.3,11.2,57.4,10.7z"/>
	<path d="M60.3,13.2c0,1.1,0,2.2,0,3.3c0,0.4-0.1,0.6-0.5,0.4c0-3.1,0-6.2,0-9.4c0.4-0.1,0.4-0.1,0.6,0.7c0.6-0.7,1.3-1,2.2-0.9
		c1.2,0,2.1,0.6,2.4,1.8c0.3,1,0.3,2,0,3.1c-0.6,2-3,2.6-4.5,1.1C60.5,13.4,60.4,13.3,60.3,13.2z M64.7,10.7c-0.1-0.5-0.1-1-0.3-1.5
		c-0.3-0.9-1-1.3-2-1.3c-1,0-1.7,0.5-1.9,1.4c-0.1,0.8-0.2,1.6-0.1,2.4c0.1,1.2,0.7,1.8,1.8,1.9c1.2,0.1,2-0.4,2.3-1.6
		C64.6,11.7,64.6,11.2,64.7,10.7z"/>
	<path d="M51.2,14c-0.5,0.2-0.7,0-0.9-0.4c-0.3-0.7-0.6-1.4-0.8-2.1c-0.1-0.4-0.3-0.5-0.7-0.5c-0.8,0-1.7,0-2.5,0
		c-0.4,0-0.6,0.1-0.7,0.5c-0.3,0.7-0.6,1.5-0.8,2.2c-0.1,0.4-0.4,0.5-0.8,0.4c0-0.2,0.1-0.3,0.1-0.5c1-2.6,2.1-5.2,3.1-7.8
		c0.1-0.2,0.3-0.3,0.4-0.5c0.1,0.2,0.3,0.3,0.4,0.5C49.1,8.5,50.1,11.2,51.2,14z M46,10.4c1,0,2,0,3.1,0c-0.5-1.3-1-2.6-1.5-4.1
		C47,7.8,46.5,9,46,10.4z"/>
	<path d="M73.3,7.4c0.4,0,0.7,0,1.1,0c0.1,0.3,0.2,0.7,0.2,1c1.3-1.2,1.7-1.4,2.8-1.1c0,0.4-0.1,0.8-0.1,1.2c-0.2,0-0.3,0-0.4,0
		c-1.3,0-2.1,0.7-2.1,2c0,0.9,0,1.8,0,2.7c0,0.2,0,0.4,0,0.7c-0.5,0-0.9,0-1.4,0C73.3,11.7,73.3,9.6,73.3,7.4z"/>
	<path d="M38.2,16.7c1.5-0.3,2.3-1.1,2.5-2.5c0-0.2-0.1-0.4-0.2-0.7c-0.7-2-1.5-3.9-2.2-5.9c0.5-0.3,0.6,0,0.8,0.4
		c0.6,1.6,1.2,3.2,1.8,4.8c0.1,0.2,0.1,0.3,0.3,0.6c0.1-0.3,0.2-0.5,0.3-0.8c0.6-1.6,1.2-3.1,1.8-4.7c0.1-0.3,0.3-0.6,0.7-0.3
		c-0.2,0.6-0.5,1.2-0.7,1.8c-0.8,2.1-1.6,4.2-2.5,6.3c-0.4,1-1.1,1.4-2,1.2C38.5,17,38.3,16.8,38.2,16.7z"/>
	<g>
		<defs>
			<rect id="SVGID_1_" x="0.3" y="0.3" width="20.4" height="21.5"/>
		</defs>
		<clipPath id="SVGID_00000098209034281465624750000005794092966804513155_">
			<use xlink:href="#SVGID_1_"  style="overflow:visible;"/>
		</clipPath>
		<g style="clip-path:url(#SVGID_00000098209034281465624750000005794092966804513155_);">
			<path d="M10.2,6.9c-0.2,0-0.3,0-0.4-0.1C8.9,6.2,8.1,5.9,7.1,5.9C6.7,5.9,6.3,5.9,5.9,6l0,0L5.8,6C5.7,6,5.7,6,5.6,6L5.4,6
				L5.3,5.7C5,4.5,5.3,3.1,6,2c0.7-1.1,1.9-1.8,3.2-2c0.3,0,0.5-0.1,0.8-0.1c2.5,0,4.6,1.9,4.8,4.3c0.1,0.9-0.8,1.7-1.6,1.9
				c-0.5,0.1-1,0.3-1.6,0.4c-0.3,0.1-0.6,0.2-0.9,0.3C10.6,6.8,10.4,6.9,10.2,6.9z"/>
			<path class="st0" d="M9.9,0.3c2.3,0,4.3,1.7,4.5,3.9c0.1,0.7-0.7,1.4-1.3,1.5c-0.8,0.2-1.6,0.5-2.5,0.7c-0.1,0-0.3,0.1-0.4,0.1
				c-0.1,0-0.1,0-0.2,0c-0.9-0.6-1.9-1-2.9-1c-0.4,0-0.8,0.1-1.3,0.2c0,0,0,0,0,0c0,0-0.1,0-0.1,0C5.1,3.2,6.8,0.7,9.2,0.4
				C9.5,0.3,9.7,0.3,9.9,0.3 M9.9-0.5c-0.3,0-0.6,0-0.8,0.1c-1.4,0.2-2.6,1-3.4,2.2C4.9,3,4.6,4.4,4.9,5.8L5,6.3l0.5,0.1
				c0.1,0,0.2,0,0.3,0h0.1l0.1,0c0.4-0.1,0.8-0.1,1.1-0.1c0.9,0,1.7,0.3,2.4,0.8c0.2,0.1,0.4,0.2,0.6,0.2c0.2,0,0.4-0.1,0.6-0.1
				c0.3-0.1,0.6-0.2,0.9-0.3c0.5-0.2,1-0.3,1.5-0.4c1-0.2,2-1.2,1.9-2.3C14.9,1.6,12.7-0.5,9.9-0.5L9.9-0.5z"/>
			<path d="M6.6,22.2l-0.1-1.1c-0.1-0.6-0.2-1.3-0.3-1.9c0-0.3-0.1-0.4-0.2-0.5c-1.6-1.3-1.7-3-1.6-4.7l0-0.4H16l0,0.5
				c0.1,1.4,0.1,2.9-1.1,4c-0.5,0.4-0.7,0.9-0.8,1.7c0,0.4-0.1,0.9-0.2,1.3l-0.1,0.9H6.6z"/>
			<path class="st0" d="M15.6,14.1c0.1,1.4,0.1,2.8-1,3.9c-0.6,0.5-0.8,1.2-0.9,1.9c0,0.6-0.2,1.3-0.2,1.9c-2.2,0-4.3,0-6.5,0
				c-0.1-0.9-0.2-1.8-0.4-2.6c0-0.3-0.1-0.6-0.3-0.7c-1.4-1.1-1.6-2.7-1.4-4.4C8.4,14.1,12,14.1,15.6,14.1 M16.4,13.3h-0.7H4.8H4.1
				L4.1,14c-0.1,1.7,0,3.6,1.7,5c0,0,0.1,0.1,0.1,0.3C6,19.9,6,20.5,6.1,21.1c0,0.2,0.1,0.5,0.1,0.7l0.1,0.7H7h6.5h0.7l0.1-0.7
				c0-0.2,0.1-0.4,0.1-0.6c0.1-0.4,0.1-0.9,0.2-1.4c0.1-0.7,0.2-1.1,0.6-1.4c1.4-1.3,1.3-2.9,1.3-4.3l0-0.1L16.4,13.3L16.4,13.3z"/>
			<path d="M5.2,14.1c-1.3,0-1.9-0.8-2.3-1.6c-1-2.1-0.5-4.6,1.4-6c0.8-0.6,1.9-1,2.9-1c1.2,0,2.3,0.4,3.1,1.2l0.3,0.3l-0.3,0.3
				c-1,0.9-1.5,1.9-1.6,3c-0.1,1.2,0.3,2.2,1.3,3.2l0.6,0.6H9.6c-0.5,0-0.9,0-1.4,0c-0.4,0-0.8,0-1.2,0c-0.6,0-1.1,0-1.5,0.1
				C5.4,14.1,5.3,14.1,5.2,14.1z"/>
			<g>
				<path class="st0" d="M7.1,5.9c1,0,2.1,0.4,2.9,1.1c-1,0.9-1.6,1.9-1.7,3.2c-0.1,1.3,0.4,2.4,1.4,3.5c-0.9,0-1.8,0-2.6,0
					c-0.5,0-1.1,0-1.6,0.1c-0.1,0-0.2,0-0.3,0c-1,0-1.5-0.6-2-1.4c-1-1.9-0.4-4.2,1.3-5.5C5.2,6.2,6.2,5.9,7.1,5.9 M7.1,5.1L7.1,5.1
					C6,5.1,4.9,5.5,4,6.1c-2,1.5-2.6,4.2-1.5,6.5c0.4,0.9,1.1,1.9,2.6,1.9c0.1,0,0.2,0,0.4,0c0.4,0,0.9-0.1,1.5-0.1
					c0.4,0,0.8,0,1.2,0c0.4,0,0.9,0,1.4,0h1.7l-1.2-1.3c-0.9-0.9-1.2-1.9-1.2-3c0.1-1,0.5-1.9,1.5-2.7l0.6-0.6l-0.6-0.6
					C9.6,5.5,8.4,5.1,7.1,5.1L7.1,5.1z"/>
			</g>
			<path d="M11.6,14c-0.4,0-0.8,0-1.1,0c-0.3,0-0.8-0.2-1.1-0.5C7.7,11.6,7.9,8.7,9.8,7c0.9-0.8,2.1-1.3,3.3-1.3
				c1.2,0,2.4,0.5,3.3,1.3c1.8,1.7,2,4.7,0.4,6.6C16.4,13.8,16,14,15.7,14c-0.4,0-0.8,0-1.2,0L13,14L11.6,14z"/>
			<path d="M17.1,3.2C16.4,4.1,15.8,5,15,5.8c-0.2,0.2-0.7,0.1-1,0.1c0-0.1-0.1-0.1-0.1-0.2c0.8-1,1.6-1.9,2.5-2.9
				c0.1-0.1,0.5,0.1,0.8,0.1C17.2,3.1,17.1,3.1,17.1,3.2z"/>
			<g>
				<path class="st0" d="M13.1,6c1.1,0,2.2,0.4,3,1.2c1.7,1.6,1.9,4.3,0.3,6c-0.2,0.2-0.5,0.3-0.8,0.4c-0.4,0-0.8,0-1.1,0
					c-0.5,0-1,0-1.5,0c0,0,0,0,0,0c-0.5,0-1,0-1.4,0c-0.4,0-0.7,0-1.1,0c-0.3,0-0.6-0.2-0.8-0.4c-1.5-1.7-1.3-4.4,0.4-6
					C10.9,6.4,12,6,13.1,6 M13.1,5.3L13.1,5.3c-1.3,0-2.6,0.5-3.6,1.4c-2,1.9-2.2,5.1-0.4,7.1c0.3,0.3,0.8,0.6,1.3,0.6
					c0.3,0,0.7,0,1.2,0c0.2,0,0.5,0,0.7,0c0.2,0,0.5,0,0.7,0c0.2,0,0.5,0,0.7,0c0.2,0,0.5,0,0.7,0c0.5,0,0.8,0,1.2,0
					c0.5,0,1-0.3,1.3-0.6c0.9-1,1.3-2.3,1.2-3.6c-0.1-1.3-0.7-2.6-1.6-3.5C15.7,5.8,14.4,5.3,13.1,5.3L13.1,5.3z"/>
			</g>
		</g>
	</g>
</g>
</svg>
