<?xml version="1.0" encoding="utf-8"?>
<!-- Generator: Adobe Illustrator 25.4.1, SVG Export Plug-In . SVG Version: 6.00 Build 0)  -->
<svg version="1.1" id="Layer_1" xmlns="http://www.w3.org/2000/svg" xmlns:xlink="http://www.w3.org/1999/xlink" x="0px" y="0px"
	 viewBox="0 0 30 30" style="enable-background:new 0 0 30 30;" xml:space="preserve">
<style type="text/css">
	.st0{fill:#B3B3B3;}
</style>
<g id="zrjl62.tif">
	<g>
		<path class="st0" d="M10.4,27.2c-0.6,0-1.3,0-1.9,0c-0.1,0-0.2,0-0.3,0c-2.6-0.2-5-0.9-7.3-2.1c-0.3-0.2-0.6-0.4-0.9-0.6
			c3.3,0.2,6.3-0.6,9-2.6c-2.8-0.3-4.7-1.7-5.7-4.3c0.9,0.1,1.8,0.1,2.7-0.1c-3.7-0.9-5-4.3-4.8-6.1c0.8,0.4,1.7,0.7,2.7,0.7
			C0.6,9.8,0.7,5.9,2,3.9c3.3,3.9,7.5,6.1,12.7,6.4c0-0.4-0.1-0.8-0.1-1.2c0-0.4,0-0.8,0.1-1.1c0.4-2.9,2.8-5.1,5.7-5.2
			c1.8-0.1,3.4,0.5,4.7,1.7c0.1,0.1,0.3,0.2,0.4,0.2c0.7-0.2,1.4-0.4,2.1-0.6c0.6-0.2,1.1-0.5,1.6-0.8c-0.5,1.4-1.3,2.5-2.5,3.3
			c1.2-0.1,2.3-0.4,3.4-0.9c-0.1,0.1-0.1,0.2-0.2,0.2c-0.7,1.1-1.6,2-2.7,2.8C27,8.8,26.9,9,26.9,9.2c0.1,1.2-0.1,2.4-0.3,3.6
			C26,16.3,24.5,19.4,22,22c-2.8,2.9-6.1,4.6-10.1,5.1C11.4,27.1,10.9,27.2,10.4,27.2z"/>
	</g>
</g>
</svg>
