<?xml version="1.0" encoding="utf-8"?>
<!-- Generator: Adobe Illustrator 25.4.1, SVG Export Plug-In . SVG Version: 6.00 Build 0)  -->
<svg version="1.1" id="Layer_1" xmlns="http://www.w3.org/2000/svg" xmlns:xlink="http://www.w3.org/1999/xlink" x="0px" y="0px"
	 viewBox="0 0 30 30" style="enable-background:new 0 0 30 30;" xml:space="preserve">
<g id="zrjl62.tif_00000145029160501783433370000016143922425981117074_">
	<g>
		<path d="M10.5,27.5c-0.6,0-1.3,0-1.9,0c-0.1,0-0.2,0-0.3,0c-2.6-0.2-5-0.9-7.3-2.1c-0.3-0.2-0.6-0.4-0.9-0.6
			c3.3,0.2,6.3-0.6,9-2.6c-2.8-0.3-4.7-1.7-5.7-4.3C4.3,18,5.2,18,6.1,17.8c-3.7-0.9-5-4.3-4.8-6.1c0.8,0.4,1.7,0.7,2.7,0.7
			C0.7,10,0.8,6.2,2.1,4.2c3.3,3.9,7.5,6.1,12.6,6.4c0-0.4-0.1-0.8-0.1-1.2c0-0.4,0-0.8,0.1-1.1c0.4-2.8,2.8-5.1,5.7-5.2
			c1.8-0.1,3.3,0.5,4.6,1.7C25.2,4.9,25.3,5,25.4,5c0.7-0.2,1.4-0.4,2.1-0.6c0.6-0.2,1.1-0.5,1.6-0.8c-0.5,1.4-1.3,2.5-2.5,3.3
			C27.8,6.8,28.9,6.4,30,6c-0.1,0.1-0.1,0.2-0.2,0.2c-0.7,1.1-1.6,2-2.7,2.7c-0.2,0.1-0.3,0.3-0.2,0.5c0.1,1.2-0.1,2.4-0.3,3.6
			c-0.7,3.5-2.2,6.5-4.6,9.1c-2.7,2.9-6.1,4.6-10.1,5.1C11.5,27.3,11,27.4,10.5,27.5z"/>
	</g>
</g>
</svg>
